HIERARCHY
ROOT Hips
{
	OFFSET 0.000000 0.000000 0.000000
	CHANNELS 6 Xposition Yposition Zposition Xrotation Yrotation Zrotation
	JOINT LeftUpLeg_virtual
	{
		OFFSET 0.000000 0.000000 0.000000
		CHANNELS 3 Xrotation Yrotation Zrotation
		JOINT LeftUpLeg
		{
			OFFSET 10.205400 -3.823500 0.155100
			CHANNELS 3 Xrotation Yrotation Zrotation
			JOINT LeftLeg
			{
				OFFSET 0.708757 -12.982077 0.567790
				CHANNELS 3 Xrotation Yrotation Zrotation
				JOINT LeftFoot
				{
					OFFSET -0.708756 -10.717838 -2.184338
					CHANNELS 3 Xrotation Yrotation Zrotation
					JOINT LeftToeBase
					{
						OFFSET 0.108149 -7.191104 7.560241
						CHANNELS 3 Xrotation Yrotation Zrotation
						JOINT LeftToe_End
						{
							OFFSET 0.070230 0.081724 4.490308
							CHANNELS 3 Xrotation Yrotation Zrotation
							End Site
							{
								OFFSET 0 0 0
							}
						}
					}
				}
			}
		}
	}
	JOINT RightUpLeg_virtual
	{
		OFFSET 0.000000 0.000000 0.000000
		CHANNELS 3 Xrotation Yrotation Zrotation
		JOINT RightUpLeg
		{
			OFFSET -10.205400 -3.823500 0.005500
			CHANNELS 3 Xrotation Yrotation Zrotation
			JOINT RightLeg
			{
				OFFSET -0.708756 -12.982134 0.610632
				CHANNELS 3 Xrotation Yrotation Zrotation
				JOINT RightFoot
				{
					OFFSET 0.708754 -10.717769 -1.945823
					CHANNELS 3 Xrotation Yrotation Zrotation
					JOINT RightToeBase
					{
						OFFSET -0.108140 -7.191069 7.372968
						CHANNELS 3 Xrotation Yrotation Zrotation
						JOINT RightToe_End
						{
							OFFSET -0.070227 0.081735 4.479403
							CHANNELS 3 Xrotation Yrotation Zrotation
							End Site
							{
								OFFSET 0 0 0
							}
						}
					}
				}
			}
		}
	}
	JOINT Spine_virtual
	{
		OFFSET 0.000000 0.000000 0.000000
		CHANNELS 3 Xrotation Yrotation Zrotation
		JOINT Spine
		{
			OFFSET 0.000000 6.876099 0.125700
			CHANNELS 3 Xrotation Yrotation Zrotation
			JOINT Spine1
			{
				OFFSET 0.000000 5.730043 0.104720
				CHANNELS 3 Xrotation Yrotation Zrotation
				JOINT Spine1_split
				{
					OFFSET 0.000000 5.730043 0.104720
					CHANNELS 3 Xrotation Yrotation Zrotation
					JOINT Spine2
					{
						OFFSET 0.000000 5.730043 0.104720
						CHANNELS 3 Xrotation Yrotation Zrotation
						JOINT Neck_virtual
						{
							OFFSET 0.000000 0.000000 0.000000
							CHANNELS 3 Xrotation Yrotation Zrotation
							JOINT Neck
							{
								OFFSET 0.000000 10.314075 0.188496
								CHANNELS 3 Xrotation Yrotation Zrotation
								JOINT Head
								{
									OFFSET 0.000000 7.643700 -2.377400
									CHANNELS 3 Xrotation Yrotation Zrotation
									JOINT HeadTop_End
									{
										OFFSET 0.000000 43.788605 -13.619600
										CHANNELS 3 Xrotation Yrotation Zrotation
										End Site
										{
											OFFSET 0 0 0
										}
									}
								}
							}
						}
						JOINT LeftShoulder_virtual
						{
							OFFSET 0.000000 0.000000 0.000000
							CHANNELS 3 Xrotation Yrotation Zrotation
							JOINT LeftShoulder
							{
								OFFSET 2.196100 4.412489 0.087492
								CHANNELS 3 Xrotation Yrotation Zrotation
								JOINT LeftShoulder_split
								{
									OFFSET 2.196100 4.412489 0.087492
									CHANNELS 3 Xrotation Yrotation Zrotation
									JOINT LeftArm
									{
										OFFSET 8.771219 -2.981674 -0.026999
										CHANNELS 3 Xrotation Yrotation Zrotation
										JOINT LeftForeArm
										{
											OFFSET 8.512804 0.000000 -0.000000
											CHANNELS 3 Xrotation Yrotation Zrotation
											JOINT LeftHand
											{
												OFFSET 18.484802 0.000000 -0.000000
												CHANNELS 3 Xrotation Yrotation Zrotation
												End Site
												{
													OFFSET 0 0 0
												}
											}
										}
									}
								}
							}
						}
						JOINT RightShoulder_virtual
						{
							OFFSET 0.000000 0.000000 0.000000
							CHANNELS 3 Xrotation Yrotation Zrotation
							JOINT RightShoulder
							{
								OFFSET -2.196100 4.412496 0.070690
								CHANNELS 3 Xrotation Yrotation Zrotation
								JOINT RightShoulder_split
								{
									OFFSET -2.196100 4.412496 0.070690
									CHANNELS 3 Xrotation Yrotation Zrotation
									JOINT RightArm
									{
										OFFSET -8.771282 -2.981682 -0.094208
										CHANNELS 3 Xrotation Yrotation Zrotation
										JOINT RightForeArm
										{
											OFFSET -8.494598 0.000000 0.000000
											CHANNELS 3 Xrotation Yrotation Zrotation
											JOINT RightHand
											{
												OFFSET -18.483803 0.000000 0.000001
												CHANNELS 3 Xrotation Yrotation Zrotation
												End Site
												{
													OFFSET 0 0 0
												}
											}
										}
									}
								}
							}
						}
					}
				}
			}
		}
	}
}
MOTION
Frames: 9
Frame Time: 0.03333333
0.070453 13.145816 -0.720762 0.000000 0.000000 0.000000 69.921070 -1.340889 0.444905 15.424563 12.474344 11.389783 10.612150 14.186438 3.578250 -60.926271 13.357833 -15.609178 -37.064032 0.854353 -8.552592 0.000000 0.000000 0.000000 71.761533 -6.977673 2.112550 17.081118 -5.296735 -12.024962 6.016904 3.221431 6.851615 -43.158084 -4.403008 19.410662 -54.169308 -2.732389 5.942194 0.000000 0.000000 0.000000 75.933604 -2.272498 -0.473382 -2.606809 1.964938 -0.371212 1.693642 1.254225 0.085891 0.828992 -1.179954 0.864535 0.000000 0.000000 0.000000 1.817637 -0.387328 0.048450 -9.626423 1.197481 2.801729 9.320538 9.259619 -5.525976 0.000000 0.000000 0.000000 2.049482 -0.642887 1.007643 2.718490 2.550090 1.451810 0.423436 1.501038 -3.213126 -43.790798 -57.110791 -48.889347 1.199515 -21.429129 0.024966 0.000000 0.000000 0.000000 1.258049 -0.423426 1.038474 0.235447 4.731491 15.646710 5.328713 9.352185 -2.777018 -56.052238 56.871365 52.382223 -0.650473 20.385647 0.592181 0.000000 0.000000 0.000000 
-0.009281 13.170446 -0.767241 0.000000 0.000000 0.000000 69.864407 -1.158951 0.419185 15.767389 13.135147 11.232749 10.511530 14.297212 3.318632 -61.153108 13.092318 -15.508670 -37.662923 0.809738 -8.205599 0.000000 0.000000 0.000000 71.813271 -7.200689 2.362552 16.944733 -5.098295 -12.037006 6.041211 3.238179 6.899405 -43.239899 -4.610082 19.493829 -53.472158 -2.700648 5.909986 0.000000 0.000000 0.000000 76.259568 -2.441131 -0.227996 -2.479500 1.935595 -0.411811 1.791954 1.251430 0.065461 0.919234 -1.616430 0.919099 0.000000 0.000000 0.000000 1.813738 -0.376178 0.098309 -9.929967 0.944768 2.779808 9.199194 9.292413 -5.915297 0.000000 0.000000 0.000000 2.120112 -0.610817 1.008739 2.677569 2.671392 1.540965 0.944842 1.720363 -2.773102 -44.240863 -57.182456 -49.337632 1.331909 -20.787710 -0.105459 0.000000 0.000000 0.000000 1.421648 -0.356234 1.088710 0.200936 4.997491 15.522325 5.424116 9.104874 -2.987409 -55.788524 56.090924 51.626890 -0.628851 20.790155 0.785856 0.000000 0.000000 0.000000 
-0.027343 13.217649 -0.805412 0.000000 0.000000 0.000000 69.775744 -1.177694 0.505978 16.286555 13.529835 11.044052 10.129673 14.333915 3.100220 -60.771492 12.725403 -15.817070 -38.472816 0.647982 -7.475020 0.000000 0.000000 0.000000 71.871745 -7.400060 2.588475 16.804666 -5.207419 -11.831628 5.839200 3.094951 6.840144 -43.165201 -4.963887 19.733634 -53.543642 -2.702978 5.803692 0.000000 0.000000 0.000000 76.443477 -2.589107 0.025809 -2.234647 1.847491 -0.522193 1.927279 1.218408 0.068498 0.988221 -1.984578 0.964148 0.000000 0.000000 0.000000 1.791746 -0.424970 0.201163 -10.052332 0.759780 2.728965 8.943430 9.197693 -6.104184 0.000000 0.000000 0.000000 2.261183 -0.646833 1.018085 2.662671 2.750900 1.962505 1.507096 1.967842 -2.339232 -44.421693 -57.619804 -49.810152 1.434375 -20.576860 -0.257100 0.000000 0.000000 0.000000 1.646177 -0.329208 1.165762 0.045059 5.655730 15.297054 5.571457 8.882966 -3.003125 -53.717170 54.563458 49.062789 -0.617295 22.888457 0.953260 0.000000 0.000000 0.000000 
-0.004837 13.277555 -0.821238 0.000000 0.000000 0.000000 69.634994 -1.314307 0.639703 17.030619 13.599875 10.736543 9.246499 14.452803 3.052650 -59.926495 12.236776 -16.049360 -39.071117 0.422538 -6.644648 0.000000 0.000000 0.000000 71.924358 -7.512457 2.758555 16.820738 -5.581279 -11.366268 5.456976 2.786407 6.655011 -43.131470 -5.403009 19.984662 -54.049428 -2.732288 5.675169 0.000000 0.000000 0.000000 76.450355 -2.785347 0.329585 -1.907112 1.712643 -0.691119 2.074809 1.141832 0.079165 0.970243 -2.176512 0.981344 0.000000 0.000000 0.000000 1.780631 -0.537152 0.339851 -9.982635 0.671174 2.646840 8.525738 8.965989 -6.069875 0.000000 0.000000 0.000000 2.444203 -0.738710 1.042043 2.662999 2.862875 2.748816 2.074586 2.130229 -1.981476 -44.565711 -58.198628 -50.337965 1.528265 -20.992096 -0.404164 0.000000 0.000000 0.000000 1.908425 -0.347669 1.259475 -0.245430 6.771304 14.996789 5.630512 8.750340 -2.895634 -50.425504 52.513469 45.380378 -0.597846 26.182051 1.081899 0.000000 0.000000 0.000000 
0.020544 13.340612 -0.801601 0.000000 0.000000 0.000000 69.499456 -1.475819 0.786028 18.136657 13.444764 10.289295 7.569196 14.722748 3.221254 -59.013231 11.610261 -15.903901 -39.482632 0.214891 -5.895483 0.000000 0.000000 0.000000 71.937690 -7.566465 2.883288 17.022853 -6.111375 -10.671820 5.103950 2.286439 6.335106 -43.403147 -5.845394 19.945375 -54.178751 -2.744804 5.603413 0.000000 0.000000 0.000000 76.267627 -3.017898 0.622141 -1.530029 1.564184 -0.904339 2.212634 1.017793 0.088546 0.999996 -2.390105 0.934145 0.000000 0.000000 0.000000 1.812321 -0.695219 0.493333 -9.650446 0.709590 2.533939 7.999032 8.681312 -5.836330 0.000000 0.000000 0.000000 2.662383 -0.872459 1.069386 2.659415 3.051806 3.837524 2.457917 2.158425 -1.757183 -44.714417 -58.598392 -50.779369 1.652629 -21.936843 -0.515537 0.000000 0.000000 0.000000 2.176954 -0.418926 1.362278 -0.677847 8.389130 14.598889 5.605969 8.569956 -2.813861 -46.574589 50.175130 41.234047 -0.586168 30.098431 1.164072 0.000000 0.000000 0.000000 
0.032825 13.417353 -0.745615 0.000000 0.000000 0.000000 69.319105 -1.710276 0.965049 19.466065 13.111873 9.816679 5.243275 14.878346 3.652386 -57.860028 11.020034 -15.815901 -39.911066 0.085525 -5.233259 0.000000 0.000000 0.000000 71.881840 -7.615030 2.970952 17.276202 -6.725053 -9.796993 4.951731 1.580919 5.921816 -43.932726 -6.307220 19.589227 -53.689528 -2.716604 5.600441 0.000000 0.000000 0.000000 75.937428 -3.251048 0.837539 -1.141804 1.443633 -1.108302 2.336380 0.860700 0.091601 1.065199 -2.510694 0.784962 0.000000 0.000000 0.000000 1.905758 -0.864652 0.635195 -9.046588 0.816689 2.398960 7.462809 8.315713 -5.432490 0.000000 0.000000 0.000000 2.910501 -1.019027 1.084586 2.641055 3.272281 5.147850 2.629798 2.042221 -1.598708 -44.673996 -58.609348 -50.899167 1.832607 -23.292777 -0.588750 0.000000 0.000000 0.000000 2.462797 -0.512043 1.461192 -1.215009 10.537678 14.158676 5.330492 8.263750 -2.819485 -42.631152 47.697861 37.113510 -0.578110 34.051058 1.213885 0.000000 0.000000 0.000000 
0.028701 13.514845 -0.660275 0.000000 0.000000 0.000000 69.152564 -2.023374 1.167628 20.723441 12.564608 9.350275 2.838774 14.754914 4.286354 -56.324837 10.535583 -16.047967 -40.232857 0.032985 -4.714669 0.000000 0.000000 0.000000 71.837765 -7.714797 2.990547 17.372487 -7.362613 -8.807006 4.875230 0.875832 5.401516 -44.459156 -6.835301 19.332152 -53.090080 -2.638619 5.581739 0.000000 0.000000 0.000000 75.602216 -3.546713 1.039330 -0.760206 1.371568 -1.256000 2.475341 0.697376 0.073525 1.051136 -2.659515 0.731701 0.000000 0.000000 0.000000 2.081510 -1.015714 0.754567 -8.260933 0.950676 2.293762 6.994815 7.894968 -4.915524 0.000000 0.000000 0.000000 3.210507 -1.153692 1.058458 2.609231 3.413056 6.622633 2.683594 1.756230 -1.536565 -44.154967 -58.140749 -50.388945 2.023469 -24.870027 -0.641494 0.000000 0.000000 0.000000 2.776955 -0.584878 1.553543 -1.815299 13.160710 13.763145 4.776768 7.890579 -2.965450 -38.936337 45.115650 33.261669 -0.577365 37.615723 1.270710 0.000000 0.000000 0.000000 
-0.001925 13.668775 -0.585232 0.000000 0.000000 0.000000 69.041820 -2.407995 1.378173 21.534915 11.677562 8.889108 0.993098 14.331193 5.061860 -54.445094 10.307507 -16.788590 -40.291108 0.033650 -4.288546 0.000000 0.000000 0.000000 71.878056 -7.987848 3.052145 17.219385 -7.937571 -7.747350 4.738303 0.379455 4.721953 -44.931720 -7.422678 19.374697 -52.668460 -2.501535 5.520882 0.000000 0.000000 0.000000 75.311763 -3.903431 1.235674 -0.343165 1.379659 -1.321710 2.657556 0.578332 0.043630 0.842454 -2.672483 0.717849 0.000000 0.000000 0.000000 2.328128 -1.097381 0.832366 -7.393331 1.055233 2.262351 6.615001 7.430051 -4.361776 0.000000 0.000000 0.000000 3.589997 -1.240788 0.985736 2.575993 3.348805 8.184808 2.667369 1.236982 -1.605256 -42.979799 -57.149043 -49.057629 2.155805 -26.512877 -0.695460 0.000000 0.000000 0.000000 3.138233 -0.597397 1.623109 -2.424310 16.158460 13.444099 4.068832 7.326071 -3.292605 -35.657286 42.395121 29.799876 -0.571053 40.706920 1.391100 0.000000 0.000000 0.000000 
-0.082136 13.890738 -0.532612 0.000000 0.000000 0.000000 69.019813 -2.852717 1.551051 21.641413 10.549681 8.285302 -0.001449 14.066570 6.077675 -53.142584 10.272374 -17.105316 -39.754546 0.023878 -4.063697 0.000000 0.000000 0.000000 72.003301 -8.481429 3.237118 16.714436 -8.424379 -6.614727 4.602727 0.107409 3.901972 -45.555306 -7.999792 19.397585 -52.099853 -2.312640 5.481448 0.000000 0.000000 0.000000 75.160925 -4.258151 1.402768 0.100836 1.503664 -1.290150 2.919145 0.549937 0.014664 0.580443 -2.434867 0.731893 0.000000 0.000000 0.000000 2.653697 -1.084529 0.858519 -6.599087 1.111328 2.328744 6.274109 6.945885 -3.875327 0.000000 0.000000 0.000000 4.054875 -1.241207 0.879332 2.566896 2.953383 9.808401 2.734148 0.469560 -1.785081 -41.213782 -55.638789 -46.935137 2.151448 -28.255261 -0.784252 0.000000 0.000000 0.000000 3.587968 -0.512789 1.659176 -3.001403 19.398477 13.263088 3.237766 6.483483 -3.711444 -33.010287 39.537103 26.759725 -0.566070 43.315701 1.597807 0.000000 0.000000 0.000000 
